Coordinates
version=1
nRows=17
nColumns=40
inDegrees=yes

Units are S.I. units (second, meters, Newtons, ...)
Angles are in degrees.

endheader
time	pelvis_tilt	pelvis_list	pelvis_rotation	pelvis_tx	pelvis_ty	pelvis_tz	hip_flexion_r	hip_adduction_r	hip_rotation_r	knee_angle_r	knee_angle_r_beta	ankle_angle_r	subtalar_angle_r	mtp_angle_r	hip_flexion_l	hip_adduction_l	hip_rotation_l	knee_angle_l	knee_angle_l_beta	ankle_angle_l	subtalar_angle_l	mtp_angle_l	lumbar_extension	lumbar_bending	lumbar_rotation	arm_flex_r	arm_add_r	arm_rot_r	elbow_flex_r	pro_sup_r	wrist_flex_r	wrist_dev_r	arm_flex_l	arm_add_l	arm_rot_l	elbow_flex_l	pro_sup_l	wrist_flex_l	wrist_dev_l
     28.33000000	     -0.85146729	     -5.48724012	     -2.84722552	      0.96714009	      0.93605375	      0.40452915	     32.53500353	     -5.22866299	     -4.60257521	     65.87836605	     65.87836605	     -2.88014026	    -17.95655865	      6.11715844	     14.10944446	     -6.07177609	     -6.09625759	     23.64521108	     23.64521108	     12.03194251	    -15.16990990	      1.79443360	    -13.77290037	      3.11075512	      2.59139857	      5.39746621	    -13.97665282	    -12.50895925	     21.89158511	     46.76396432	      0.00000000	      0.00000000	      7.36397453	    -14.60350010	     -5.13677617	     52.54391119	     46.81336178	      0.00000000	      0.00000000
     28.34250000	     -1.03706021	     -5.65588910	     -3.05214080	      0.96750189	      0.93678950	      0.40420257	     33.12364178	     -4.81815489	     -4.63897155	     62.92639510	     62.92639510	     -2.43923456	    -17.31312849	      5.85106050	     13.58704338	     -6.21724975	     -6.31549480	     23.12225984	     23.12225984	     12.16312931	    -15.01097326	      1.81329500	    -13.80652038	      3.38417358	      2.27840012	      4.38219058	    -14.49284886	    -12.64713492	     21.47361269	     46.78981034	      0.00000000	      0.00000000	      7.70754688	    -14.82750208	     -5.25990635	     53.23687853	     46.83915166	      0.00000000	      0.00000000
     28.35500000	     -1.08755381	     -5.78269180	     -3.28933993	      0.96798196	      0.93754418	      0.40392175	     33.23857263	     -4.46380364	     -4.69326270	     59.41908765	     59.41908765	     -3.18537090	    -16.92142590	      2.08791006	     12.88632668	     -6.33847605	     -6.67642620	     22.56240700	     22.56240700	     12.20549600	    -14.73825397	      1.34029012	    -14.06791222	      3.54712910	      2.06469216	      3.16649493	    -14.96912067	    -13.49620164	     21.67121246	     46.86775072	      0.00000000	      0.00000000	      7.26074303	    -15.28620274	     -5.20703543	     56.42320305	     46.90270793	      0.00000000	      0.00000000
     28.36750000	     -1.21147497	     -5.93840655	     -3.48225336	      0.96842292	      0.93824884	      0.40364913	     33.33859222	     -4.03989741	     -4.76110418	     55.79926733	     55.79926733	     -2.84608563	    -15.91465912	      1.88986544	     12.28171963	     -6.45295555	     -6.86829412	     22.00279915	     22.00279915	     12.34123731	    -14.58817556	      1.37967271	    -14.16289297	      3.80868133	      1.81022676	      2.19849334	    -15.49931363	    -13.63857223	     21.31023861	     46.89186047	      0.00000000	      0.00000000	      7.64621142	    -15.46265154	     -5.30978485	     56.96645783	     46.92689061	      0.00000000	      0.00000000
     28.38000000	     -1.32369585	     -5.99162013	     -3.69653325	      0.96889100	      0.93882547	      0.40345991	     33.22104088	     -3.73472628	     -4.85257998	     51.81870669	     51.81870669	     -2.91445756	    -14.72561626	      0.41403861	     11.65188015	     -6.48203089	     -7.19738751	     21.41643996	     21.41643996	     12.43161537	    -14.25524946	      1.22581287	    -14.33411772	      3.91433727	      1.87506859	      0.89447550	    -16.01030081	    -14.05170617	     21.35326484	     46.92328305	      0.00000000	      0.00000000	      7.82090996	    -15.62532534	     -5.28611849	     58.61269811	     46.96664361	      0.00000000	      0.00000000
     28.39250000	     -1.58218056	     -6.13925339	     -3.90304271	      0.96936183	      0.93899696	      0.40348676	     33.12042817	     -3.26948543	     -5.00124945	     47.67015767	     47.67015767	     -2.50914937	    -13.31858025	      0.39108431	     11.30017498	     -6.62413976	     -7.38787651	     21.04035143	     21.04035143	     12.60133982	    -14.21622371	      1.19892050	    -14.23340598	      4.15547188	      1.53345557	      0.03669888	    -16.39917517	    -14.17748832	     21.18587569	     46.93602271	      0.00000000	      0.00000000	      8.06718430	    -15.97737937	     -5.36933700	     59.09187923	     46.98576189	      0.00000000	      0.00000000
     28.40500000	     -1.59547746	     -6.17049307	     -4.13429199	      0.97008230	      0.93936189	      0.40358521	     32.48030411	     -3.00264615	     -5.32987970	     43.07696174	     43.07696174	     -2.67976860	    -11.46130216	     -1.78939859	     10.60678331	     -6.65849316	     -7.81943407	     20.57343586	     20.57343586	     12.75859745	    -13.93473304	      0.88396512	    -14.45786746	      4.18269214	      1.51697695	     -1.41899291	    -16.77210398	    -14.75934778	     22.20089225	     46.93234095	      0.00000000	      0.00000000	      8.00855608	    -16.32362393	     -5.15154332	     61.31294261	     47.02814937	      0.00000000	      0.00000000
     28.41750000	     -1.77814679	     -6.17106966	     -4.30111388	      0.97070240	      0.93939089	      0.40369910	     31.92728174	     -2.71759095	     -5.72059168	     38.38817786	     38.38817786	     -2.38141275	     -9.36861133	     -1.98808165	     10.17201432	     -6.63770782	     -7.99676666	     20.18662211	     20.18662211	     12.90290225	    -13.71908366	      0.78545463	    -14.48079055	      4.26089913	      1.40099438	     -2.36468183	    -17.10879554	    -14.92025808	     22.26590735	     46.93509953	      0.00000000	      0.00000000	      8.18988651	    -16.46352547	     -5.15258685	     61.86052935	     47.04913663	      0.00000000	      0.00000000
     28.43000000	     -2.10374894	     -6.19212693	     -4.50819139	      0.97140321	      0.93902319	      0.40417453	     31.37857934	     -2.26038713	     -5.99321788	     33.55959865	     33.55959865	     -2.03367852	     -7.36754711	     -1.63151524	      9.94278315	     -6.68057959	     -8.17749661	     19.91513520	     19.91513520	     13.07955412	    -13.65730930	      0.69072937	    -14.24793377	      4.33627388	      1.22455162	     -3.17143689	    -17.31205487	    -15.01169428	     22.23087103	     46.93659921	      0.00000000	      0.00000000	      8.32010837	    -16.65604822	     -5.17929065	     62.29775315	     47.06299944	      0.00000000	      0.00000000
     28.44250000	     -2.13482290	     -6.08991592	     -4.67940443	      0.97244294	      0.93878588	      0.40458438	     30.37223429	     -2.07937375	     -6.73319379	     28.71659852	     28.71659852	     -1.77538951	     -4.44755215	     -1.93675756	      9.35373604	     -6.58765177	     -8.53730518	     19.60582650	     19.60582650	     13.27264600	    -13.34660831	      0.26408814	    -14.40294115	      4.25360038	      1.37009552	     -4.88076046	    -17.51257719	    -15.45587407	     24.12042175	     46.86121410	      0.00000000	      0.00000000	      8.38620932	    -16.85656635	     -4.75194632	     63.62494934	     47.09714891	      0.00000000	      0.00000000
     28.45500000	     -2.24516016	     -5.95750731	     -4.85474569	      0.97356494	      0.93831000	      0.40522658	     29.41785003	     -1.79646377	     -7.35972087	     24.07751384	     24.07751384	     -1.35643392	     -1.75034756	     -0.94821159	      8.89784209	     -6.47092091	     -8.81189343	     19.39301492	     19.39301492	     13.51698693	    -13.16713061	      0.04811605	    -14.35922536	      4.13532541	      1.34748836	     -5.73466792	    -17.62361451	    -15.53153856	     24.23862323	     46.85022128	      0.00000000	      0.00000000	      8.56569238	    -16.94908751	     -4.69328135	     63.99307379	     47.11266451	      0.00000000	      0.00000000
     28.46750000	     -2.37783223	     -5.81134291	     -5.02586983	      0.97483260	      0.93759347	      0.40603559	     28.62832167	     -1.52255672	     -8.06518820	     20.12025490	     20.12025490	     -0.15388532	      1.08807713	      2.55857033	      8.48859873	     -6.35776728	     -9.08671907	     19.23687142	     19.23687142	     13.72800408	    -13.01871632	     -0.39312547	    -14.26103755	      4.01505111	      1.50026621	     -7.13576138	    -17.64366313	    -15.83188038	     25.66368779	     46.77797301	      0.00000000	      0.00000000	      8.74671999	    -17.07529911	     -4.21081679	     64.41593370	     47.13778984	      0.00000000	      0.00000000
     28.48000000	     -2.60298094	     -5.47843938	     -5.21069767	      0.97619636	      0.93648110	      0.40706361	     28.00104561	     -1.30424176	     -8.28147323	     16.57578178	     16.57578178	      0.02137655	      2.70535823	      3.48317171	      8.23709395	     -6.05274248	     -9.31815722	     19.17837310	     19.17837310	     14.01346004	    -13.00661349	     -0.57947703	    -13.94165485	      3.65878239	      1.39808033	     -7.71826871	    -17.50686597	    -15.85815495	     25.57543518	     46.77612553	      0.00000000	      0.00000000	      8.79596358	    -17.19555834	     -4.22274431	     64.57287342	     47.14583908	      0.00000000	      0.00000000
     28.49250000	     -2.46189808	     -5.36787040	     -5.33033393	      0.97798540	      0.93598790	      0.40803383	     27.04694573	     -1.10595672	     -9.49390873	     13.86302386	     13.86302386	      1.02805573	      5.59652113	      6.27737404	      7.43139634	     -5.96795674	     -9.66831370	     18.91670956	     18.91670956	     14.35398021	    -12.55501382	     -0.97104265	    -14.06438824	      3.56547308	      1.51438685	     -8.55847410	    -17.44068422	    -16.10742946	     26.16174284	     46.75260724	      0.00000000	      0.00000000	      8.90826739	    -17.14923160	     -3.98378228	     64.84342186	     47.15493286	      0.00000000	      0.00000000
     28.50500000	     -2.46601187	     -5.18715010	     -5.43640800	      0.97973379	      0.93516510	      0.40924567	     26.44301008	     -0.87341268	     -9.95735101	     11.98581778	     11.98581778	      1.89128790	      6.85773054	      8.78287416	      6.91118297	     -5.82567955	     -9.87595357	     18.86506849	     18.86506849	     14.67700999	    -12.41799880	     -1.22990375	    -13.96818711	      3.39955729	      1.58471819	     -9.30013195	    -17.26802301	    -16.40845706	     26.71229352	     46.73410824	      0.00000000	      0.00000000	      8.97607857	    -17.14051525	     -3.74272352	     64.75825132	     47.15978914	      0.00000000	      0.00000000
     28.51750000	     -2.64143708	     -4.97590095	     -5.52883373	      0.98150667	      0.93406811	      0.41045558	     26.07293257	     -0.68821564	    -10.17257478	     10.69885556	     10.69885556	      2.11950178	      7.46569922	      9.34407406	      6.59274679	     -5.64979668	    -10.00466733	     18.82059200	     18.82059200	     15.03252888	    -12.38613767	     -1.37814994	    -13.68274197	      3.28951944	      1.52593892	     -9.65000092	    -17.01329058	    -16.48274821	     26.77557975	     46.73019353	      0.00000000	      0.00000000	      8.91529860	    -17.11489298	     -3.67839053	     64.68156975	     47.15933966	      0.00000000	      0.00000000
     28.53000000	     -2.55745346	     -4.85650512	     -5.57712144	      0.98359533	      0.93333573	      0.41190955	     25.55603250	     -0.52240151	    -10.50670427	     10.27670481	     10.27670481	      2.42481741	      7.92152785	      9.68558693	      5.93847865	     -5.58128148	    -10.16797522	     18.74934372	     18.74934372	     15.43533076	    -12.13111018	     -1.52370888	    -13.53275000	      3.13457291	      1.48971216	     -9.96610465	    -16.76686349	    -16.62052525	     26.94169819	     46.72610208	      0.00000000	      0.00000000	      8.83812571	    -17.01111533	     -3.58231727	     64.44742123	     47.15581663	      0.00000000	      0.00000000
